<svg width="600" height="48" viewBox="0 0 600 48" fill="none" xmlns="http://www.w3.org/2000/svg">
<path d="M416.813 34.6964C416.813 36.5555 416.424 38.3066 415.646 39.9495C414.867 41.5492 413.592 42.9544 411.819 44.165C410.09 45.3323 407.82 46.2619 405.01 46.9536C402.243 47.6454 398.827 47.9913 394.763 47.9913C392.471 47.9913 390.223 47.8183 388.018 47.4725C385.856 47.1266 383.781 46.6294 381.792 45.9808C379.847 45.3323 378.031 44.5541 376.345 43.6461C374.702 42.695 373.275 41.6573 372.064 40.5332L375.307 36.642C377.771 38.7605 380.646 40.3819 383.932 41.506C387.218 42.5869 390.828 43.1273 394.763 43.1273C399.13 43.1273 402.221 42.522 404.037 41.3114C405.853 40.1008 406.761 38.4363 406.761 36.3177C406.761 34.6748 406.047 33.2913 404.62 32.1671C403.194 31.043 400.772 29.9405 397.357 28.8596L385.035 24.9684C380.971 23.6714 377.901 22.0284 375.826 20.0396C373.75 18.0075 372.713 15.435 372.713 12.3221C372.713 10.7224 373.08 9.18752 373.815 7.71752C374.593 6.20428 375.782 4.8856 377.382 3.76148C378.982 2.59412 381.014 1.68618 383.478 1.03765C385.986 0.345883 388.991 0 392.493 0C394.611 0 396.708 0.172942 398.784 0.518826C400.902 0.864707 402.913 1.36191 404.815 2.01045C406.761 2.65898 408.555 3.45883 410.198 4.41001C411.884 5.31795 413.332 6.33398 414.543 7.45811L411.3 11.3493C408.836 9.23076 406.069 7.63105 402.999 6.55016C399.929 5.42604 396.427 4.86398 392.493 4.86398C389.25 4.86398 386.807 5.42604 385.165 6.55016C383.565 7.67428 382.765 9.05782 382.765 10.7008C382.765 11.6087 382.916 12.4086 383.219 13.1003C383.522 13.7489 384.019 14.3758 384.711 14.9811C385.446 15.5431 386.397 16.0836 387.564 16.6024C388.731 17.078 390.18 17.5968 391.909 18.1589L404.167 22.0501C408.101 23.3039 411.192 24.9468 413.44 26.9789C415.689 29.0109 416.813 31.5835 416.813 34.6964Z" fill="white"/>
<path d="M82.773 46.6942V33.0751L103.85 1.29706H93.4737L78.2333 24.3199H77.909L62.6685 1.29706H52.292L73.3693 33.0751V46.6942H82.773Z" fill="white"/>
<path d="M117.464 41.8302L147.621 6.80958V1.29706H106.764V6.16105H136.272L106.115 41.1817V46.6942H148.27V41.8302H117.464Z" fill="white"/>
<path d="M203.676 33.0751V46.6942H194.272V33.0751L173.195 1.29706H183.571L198.812 24.3199H199.136L214.377 1.29706H224.753L203.676 33.0751Z" fill="white"/>
<path fill-rule="evenodd" clip-rule="evenodd" d="M248.964 12.9058C246.542 12.0843 243.883 11.6736 240.987 11.6736C238.047 11.6736 235.366 12.0843 232.945 12.9058C230.524 13.684 228.448 14.8514 226.719 16.4078C224.99 17.9211 223.628 19.8234 222.633 22.1149C221.682 24.3631 221.206 26.9357 221.206 29.8324C221.206 32.7724 221.682 35.3666 222.633 37.6148C223.628 39.863 224.99 41.7654 226.719 43.3219C228.448 44.8351 230.524 45.9808 232.945 46.7591C235.366 47.5806 238.047 47.9913 240.987 47.9913C243.883 47.9913 246.542 47.5806 248.964 46.7591C251.428 45.9808 253.525 44.8351 255.254 43.3219C256.984 41.7654 258.324 39.863 259.275 37.6148C260.27 35.3666 260.767 32.7724 260.767 29.8324C260.767 26.9357 260.27 24.3631 259.275 22.1149C258.324 19.8234 256.984 17.9211 255.254 16.4078C253.525 14.8514 251.428 13.684 248.964 12.9058ZM244.878 42.9976C243.667 43.5164 242.37 43.7758 240.987 43.7758C239.603 43.7758 238.306 43.5164 237.095 42.9976C235.885 42.4788 234.826 41.6789 233.918 40.598C233.01 39.4739 232.275 38.0255 231.713 36.2529C231.194 34.4802 230.934 32.3401 230.934 29.8324C230.934 27.3248 231.194 25.1846 231.713 23.412C232.275 21.6393 233.01 20.2125 233.918 19.1317C234.826 18.0075 235.885 17.1861 237.095 16.6672C238.306 16.1484 239.603 15.889 240.987 15.889C242.37 15.889 243.667 16.1484 244.878 16.6672C246.088 17.1861 247.148 18.0075 248.056 19.1317C248.964 20.2125 249.677 21.6393 250.196 23.412C250.758 25.1846 251.039 27.3248 251.039 29.8324C251.039 32.3401 250.758 34.4802 250.196 36.2529C249.677 38.0255 248.964 39.4739 248.056 40.598C247.148 41.6789 246.088 42.4788 244.878 42.9976Z" fill="white"/>
<path d="M287.423 33.0751V46.6942H278.02V33.0751L256.942 1.29706H267.319L282.559 24.3199H282.884L298.124 1.29706H308.501L287.423 33.0751Z" fill="white"/>
<path fill-rule="evenodd" clip-rule="evenodd" d="M332.711 12.9058C330.29 12.0843 327.631 11.6736 324.734 11.6736C321.794 11.6736 319.114 12.0843 316.692 12.9058C314.271 13.684 312.196 14.8514 310.466 16.4078C308.737 17.9211 307.375 19.8234 306.381 22.1149C305.43 24.3631 304.954 26.9357 304.954 29.8324C304.954 32.7724 305.43 35.3666 306.381 37.6148C307.375 39.863 308.737 41.7654 310.466 43.3219C312.196 44.8351 314.271 45.9808 316.692 46.7591C319.114 47.5806 321.794 47.9913 324.734 47.9913C327.631 47.9913 330.29 47.5806 332.711 46.7591C335.175 45.9808 337.272 44.8351 339.002 43.3219C340.731 41.7654 342.072 39.863 343.023 37.6148C344.017 35.3666 344.514 32.7724 344.514 29.8324C344.514 26.9357 344.017 24.3631 343.023 22.1149C342.072 19.8234 340.731 17.9211 339.002 16.4078C337.272 14.8514 335.175 13.684 332.711 12.9058ZM328.625 42.9976C327.415 43.5164 326.118 43.7758 324.734 43.7758C323.351 43.7758 322.054 43.5164 320.843 42.9976C319.632 42.4788 318.573 41.6789 317.665 40.598C316.757 39.4739 316.022 38.0255 315.46 36.2529C314.941 34.4802 314.682 32.3401 314.682 29.8324C314.682 27.3248 314.941 25.1846 315.46 23.412C316.022 21.6393 316.757 20.2125 317.665 19.1317C318.573 18.0075 319.632 17.1861 320.843 16.6672C322.054 16.1484 323.351 15.889 324.734 15.889C326.118 15.889 327.415 16.1484 328.625 16.6672C329.836 17.1861 330.895 18.0075 331.803 19.1317C332.711 20.2125 333.424 21.6393 333.943 23.412C334.505 25.1846 334.786 27.3248 334.786 29.8324C334.786 32.3401 334.505 34.4802 333.943 36.2529C333.424 38.0255 332.711 39.4739 331.803 40.598C330.895 41.6789 329.836 42.4788 328.625 42.9976Z" fill="white"/>
<path d="M420.055 17.5103H426.217V34.3721C426.217 38.6092 427.535 41.9383 430.173 44.3595C432.81 46.7807 436.571 47.9913 441.457 47.9913C443.1 47.9913 444.743 47.7751 446.386 47.3428C448.072 46.9104 449.564 46.37 450.861 45.7214L448.915 41.506C448.094 41.9816 447.078 42.4355 445.867 42.8679C444.656 43.257 443.403 43.4516 442.106 43.4516C441.198 43.4516 440.333 43.2786 439.511 42.9327C438.69 42.5869 437.955 42.068 437.306 41.3763C436.701 40.6413 436.204 39.7117 435.815 38.5876C435.469 37.4202 435.296 36.0151 435.296 34.3721V17.5103H445.348V12.9706H435.296V2.59413H426.217V12.9706H420.055V17.5103Z" fill="white"/>
<path d="M454.078 12.9706H463.157V33.3993C463.157 36.5123 463.936 38.7605 465.492 40.1441C467.049 41.4844 469.297 42.1545 472.237 42.1545H480.668V12.9706H489.747V46.6942H472.237C466.054 46.6942 461.471 45.5917 458.488 43.3867C455.548 41.1385 454.078 37.8094 454.078 33.3993V12.9706Z" fill="white"/>
<path fill-rule="evenodd" clip-rule="evenodd" d="M508.842 45.5269C511.306 46.3051 514.03 46.6942 517.013 46.6942H534.199V1.29706H525.12V12.9706H517.013C514.03 12.9706 511.306 13.3597 508.842 14.138C506.421 14.9162 504.345 16.0403 502.616 17.5103C500.887 18.9803 499.546 20.753 498.595 22.8283C497.687 24.9036 497.233 27.2383 497.233 29.8324C497.233 32.4265 497.687 34.7613 498.595 36.8366C499.546 38.9119 500.887 40.6845 502.616 42.1545C504.345 43.6245 506.421 44.7486 508.842 45.5269ZM517.013 17.5103H525.12V42.1545H517.013C515.543 42.1545 514.181 41.9383 512.928 41.506C511.717 41.0304 510.658 40.2954 509.75 39.301C508.885 38.3066 508.193 37.0311 507.675 35.4746C507.199 33.9182 506.961 32.0374 506.961 29.8324C506.961 27.6274 507.199 25.7467 507.675 24.1902C508.193 22.6337 508.885 21.3583 509.75 20.3639C510.658 19.3695 511.717 18.6561 512.928 18.2237C514.181 17.7481 515.543 17.5103 517.013 17.5103Z" fill="white"/>
<path d="M552.655 46.6942H543.575V13.6191H552.655V46.6942Z" fill="white"/>
<path d="M552.979 4.86398C552.979 6.16104 552.525 7.30678 551.617 8.3012C550.752 9.25237 549.585 9.72796 548.115 9.72796C546.645 9.72796 545.456 9.25237 544.548 8.3012C543.683 7.30678 543.251 6.16104 543.251 4.86398C543.251 3.56692 543.683 2.4428 544.548 1.49162C545.456 0.497207 546.645 0 548.115 0C549.542 0 550.709 0.497207 551.617 1.49162C552.525 2.4428 552.979 3.56692 552.979 4.86398Z" fill="white"/>
<path fill-rule="evenodd" clip-rule="evenodd" d="M588.197 12.9058C585.776 12.0843 583.117 11.6736 580.22 11.6736C577.28 11.6736 574.599 12.0843 572.178 12.9058C569.757 13.684 567.682 14.8514 565.952 16.4078C564.223 17.9211 562.861 19.8234 561.866 22.1149C560.915 24.3631 560.44 26.9357 560.44 29.8324C560.44 32.7724 560.915 35.3666 561.866 37.6148C562.861 39.863 564.223 41.7654 565.952 43.3219C567.682 44.8351 569.757 45.9808 572.178 46.7591C574.599 47.5806 577.28 47.9913 580.22 47.9913C583.117 47.9913 585.776 47.5806 588.197 46.7591C590.661 45.9808 592.758 44.8351 594.488 43.3219C596.217 41.7654 597.557 39.863 598.508 37.6148C599.503 35.3666 600 32.7724 600 29.8324C600 26.9357 599.503 24.3631 598.508 22.1149C597.557 19.8234 596.217 17.9211 594.488 16.4078C592.758 14.8514 590.661 13.684 588.197 12.9058ZM584.111 42.9976C582.9 43.5164 581.603 43.7758 580.22 43.7758C578.836 43.7758 577.539 43.5164 576.329 42.9976C575.118 42.4788 574.059 41.6789 573.151 40.598C572.243 39.4739 571.508 38.0255 570.946 36.2529C570.427 34.4802 570.168 32.3401 570.168 29.8324C570.168 27.3248 570.427 25.1846 570.946 23.412C571.508 21.6393 572.243 20.2125 573.151 19.1317C574.059 18.0075 575.118 17.1861 576.329 16.6672C577.539 16.1484 578.836 15.889 580.22 15.889C581.603 15.889 582.9 16.1484 584.111 16.6672C585.322 17.1861 586.381 18.0075 587.289 19.1317C588.197 20.2125 588.91 21.6393 589.429 23.412C589.991 25.1846 590.272 27.3248 590.272 29.8324C590.272 32.3401 589.991 34.4802 589.429 36.2529C588.91 38.0255 588.197 39.4739 587.289 40.598C586.381 41.6789 585.322 42.4788 584.111 42.9976Z" fill="white"/>
<path d="M49.6126 46.6942V1.29705H37.6148L24.7739 16.7969L11.9978 1.29705H0V46.6942H11.025L24.7739 30.0918L38.5876 46.6942H49.6126Z" fill="white"/>
</svg>
