<svg width="24" height="24" viewBox="0 0 24 24" fill="none" xmlns="http://www.w3.org/2000/svg">
<path d="M14.624 8.351C14.203 8.627 12.874 9.385 12.674 9.541C12.276 9.851 11.919 9.831 11.529 9.528C11.329 9.373 9.999 8.614 9.578 8.338C9.101 8.026 9.13 7.643 9.662 7.419C11.299 6.731 12.941 6.78 14.567 7.454C15.061 7.659 15.077 8.053 14.624 8.351ZM21.84 15.632C20.9135 13.5323 19.6176 11.6159 18.014 9.974C17.471 9.418 17.144 8.798 16.939 8.094C16.843 7.76 16.773 7.419 16.701 7.079C16.514 6.2 16.405 5.302 16.015 4.472C15.273 2.895 13.99 2.072 12.165 2C10.345 2.05 9.003 2.814 8.21 4.397C7.995 4.825 7.848 5.277 7.747 5.741C7.579 6.512 7.427 7.287 7.249 8.056C7.10624 8.71185 6.77133 9.3103 6.287 9.775C4.69999 11.3238 3.38944 13.1325 2.412 15.123C2.272 15.407 2.128 15.697 2.042 15.999C1.852 16.663 2.332 17.12 3.034 16.965C3.47 16.868 3.911 16.781 4.334 16.645C4.736 16.517 4.899 16.595 5.021 17.009C5.651 19.149 7.069 20.663 9.236 21.49C13.358 23.064 18.166 20.842 19.206 16.92C19.278 16.651 19.376 16.553 19.683 16.646C20.14 16.785 20.611 16.888 21.08 16.986C21.572 17.088 21.925 16.836 21.991 16.364C22.028 16.104 21.944 15.867 21.84 15.632" fill="#444444"/>
</svg>
