<svg width="24" height="24" viewBox="0 0 24 24" fill="none" xmlns="http://www.w3.org/2000/svg">
<path d="M18.707 19.518C17.876 20.738 17.016 21.949 15.658 21.975C14.323 22 13.894 21.181 12.37 21.181C10.844 21.181 10.366 21.949 9.105 22C7.795 22.05 6.798 20.683 5.96 19.47C4.248 16.988 2.94 12.452 4.698 9.391C5.568 7.871 7.128 6.909 8.818 6.884C10.105 6.86 11.321 7.754 12.107 7.754C12.894 7.754 14.37 6.681 15.921 6.838C16.571 6.865 18.393 7.101 19.564 8.818C19.471 8.88 17.388 10.095 17.414 12.628C17.439 15.653 20.056 16.659 20.087 16.673C20.063 16.743 19.668 18.108 18.707 19.518V19.518ZM13.007 3.515C13.726 2.67 14.94 2.042 15.942 2C16.07 3.173 15.599 4.348 14.904 5.194C14.208 6.039 13.068 6.698 11.95 6.61C11.798 5.462 12.361 4.265 13.007 3.515V3.515Z" fill="#444444"/>
</svg>
