<svg width="24" height="24" viewBox="0 0 24 24" fill="none" xmlns="http://www.w3.org/2000/svg">
<path fill-rule="evenodd" clip-rule="evenodd" d="M12 2C6.477 2 2 6.477 2 12C2 16.418 4.865 20.166 8.839 21.489C9.339 21.581 9.521 21.272 9.521 21.007C9.521 20.77 9.513 20.141 9.508 19.307C6.726 19.911 6.139 17.966 6.139 17.966C5.685 16.811 5.029 16.503 5.029 16.503C4.121 15.883 5.098 15.895 5.098 15.895C6.101 15.965 6.629 16.925 6.629 16.925C7.521 18.454 8.97 18.012 9.539 17.756C9.631 17.11 9.889 16.67 10.175 16.42C7.955 16.167 5.62 15.31 5.62 11.477C5.62 10.386 6.01 9.493 6.649 8.794C6.546 8.541 6.203 7.524 6.747 6.147C6.747 6.147 7.587 5.879 9.497 7.173C10.3128 6.95068 11.1544 6.83736 12 6.836C12.8459 6.83741 13.6878 6.95073 14.504 7.173C16.413 5.879 17.251 6.147 17.251 6.147C17.797 7.524 17.453 8.541 17.351 8.794C17.991 9.493 18.379 10.386 18.379 11.477C18.379 15.319 16.04 16.164 13.813 16.412C14.172 16.721 14.491 17.331 14.491 18.264C14.491 19.601 14.479 20.679 14.479 21.007C14.479 21.274 14.659 21.585 15.167 21.487C19.137 20.163 22 16.417 22 12.001C22 6.477 17.522 2 12 2Z" fill="#444444"/>
</svg>
