<svg width="24" height="24" viewBox="0 0 24 24" fill="none" xmlns="http://www.w3.org/2000/svg">
<path d="M20 7.998L12 12.998L4 7.998V5.998L12 10.998L20 5.998V7.998ZM20 3.998H4C3.73783 3.998 3.47824 4.0498 3.23614 4.15043C2.99405 4.25106 2.77423 4.39854 2.58931 4.58439C2.40439 4.77024 2.25802 4.9908 2.1586 5.23339C2.05918 5.47598 2.00868 5.73583 2.01 5.998L2 17.998C2 18.5284 2.21071 19.0371 2.58579 19.4122C2.96086 19.7873 3.46957 19.998 4 19.998H20C20.5304 19.998 21.0391 19.7873 21.4142 19.4122C21.7893 19.0371 22 18.5284 22 17.998V5.998C22 5.46757 21.7893 4.95886 21.4142 4.58379C21.0391 4.20871 20.5304 3.998 20 3.998V3.998Z" fill="#444444"/>
</svg>
