<svg width="24" height="24" viewBox="0 0 24 24" fill="none" xmlns="http://www.w3.org/2000/svg">
<path d="M7 6H17C18.0008 5.99998 18.9858 6.25032 19.8652 6.72823C20.7445 7.20613 21.4904 7.89643 22.0348 8.73625C22.5792 9.57607 22.9049 10.5387 22.9822 11.5366C23.0595 12.5344 22.886 13.5358 22.4774 14.4494C22.0688 15.3631 21.4382 16.16 20.6429 16.7676C19.8476 17.3753 18.913 17.7743 17.9241 17.9284C16.9352 18.0826 15.9234 17.9868 14.9809 17.65C14.0385 17.3132 13.1952 16.746 12.528 16H11.472C10.8048 16.746 9.96153 17.3132 9.01906 17.65C8.0766 17.9868 7.06485 18.0826 6.07594 17.9284C5.08703 17.7743 4.15239 17.3753 3.35711 16.7676C2.56184 16.16 1.93119 15.3631 1.52261 14.4494C1.11403 13.5358 0.940486 12.5344 1.01779 11.5366C1.09509 10.5387 1.42078 9.57607 1.96519 8.73625C2.50961 7.89643 3.25546 7.20613 4.13483 6.72823C5.01421 6.25032 5.99916 5.99998 7 6V6ZM6 9V11H4V13H6V15H8V13H10V11H8V9H6ZM15.5 12C15.1022 12 14.7206 12.158 14.4393 12.4393C14.158 12.7206 14 13.1022 14 13.5C14 13.8978 14.158 14.2794 14.4393 14.5607C14.7206 14.842 15.1022 15 15.5 15C15.8978 15 16.2794 14.842 16.5607 14.5607C16.842 14.2794 17 13.8978 17 13.5C17 13.1022 16.842 12.7206 16.5607 12.4393C16.2794 12.158 15.8978 12 15.5 12V12ZM18.5 9C18.1022 9 17.7206 9.15804 17.4393 9.43934C17.158 9.72064 17 10.1022 17 10.5C17 10.8978 17.158 11.2794 17.4393 11.5607C17.7206 11.842 18.1022 12 18.5 12C18.8978 12 19.2794 11.842 19.5607 11.5607C19.842 11.2794 20 10.8978 20 10.5C20 10.1022 19.842 9.72064 19.5607 9.43934C19.2794 9.15804 18.8978 9 18.5 9Z" fill="#444444"/>
</svg>
