<svg width="24" height="24" viewBox="0 0 24 24" fill="none" xmlns="http://www.w3.org/2000/svg">
<path d="M22.46 6.01199C21.6764 6.35923 20.8451 6.5871 19.994 6.68799C20.8901 6.15173 21.5608 5.30801 21.881 4.31399C21.0386 4.8138 20.117 5.16587 19.156 5.35499C18.51 4.66414 17.6539 4.20602 16.7207 4.05181C15.7876 3.89761 14.8296 4.05598 13.9957 4.50229C13.1618 4.9486 12.4987 5.65786 12.1094 6.51986C11.7201 7.38185 11.6265 8.34829 11.843 9.26899C10.1366 9.18374 8.46722 8.74056 6.94324 7.96823C5.41925 7.1959 4.07474 6.11169 2.99699 4.78599C2.61539 5.44072 2.41486 6.18518 2.41598 6.94299C2.41554 7.64964 2.58965 8.34546 2.92286 8.96861C3.25607 9.59177 3.73806 10.123 4.32599 10.515C3.6441 10.4937 2.9772 10.3096 2.38099 9.97799V10.032C2.38099 12.112 3.86099 13.846 5.82399 14.241C5.19168 14.4129 4.52843 14.4379 3.88498 14.314C4.15925 15.1668 4.69324 15.9125 5.41225 16.4468C6.13126 16.9812 6.99932 17.2774 7.89499 17.294C6.37495 18.4875 4.49758 19.1349 2.56499 19.132C2.21799 19.132 1.87699 19.112 1.54099 19.072C3.50337 20.333 5.78735 21.0024 8.11999 21C16.013 21 20.33 14.46 20.33 8.78999C20.33 8.60299 20.326 8.41799 20.318 8.23399C21.1581 7.6265 21.8831 6.87406 22.459 6.01199H22.46Z" fill="#444444"/>
</svg>
