<svg width="24" height="24" viewBox="0 0 24 24" fill="none" xmlns="http://www.w3.org/2000/svg">
<path d="M15 4.99799H14V3.99799H15V4.99799ZM10 4.99799H9V3.99799H10V4.99799ZM15.531 2.15599L16.835 0.851989C16.8815 0.805567 16.9184 0.750443 16.9436 0.689764C16.9687 0.629085 16.9817 0.56404 16.9818 0.498343C16.9818 0.432645 16.9689 0.367582 16.9438 0.306868C16.9187 0.246154 16.8819 0.190977 16.8355 0.144489C16.7891 0.0980014 16.734 0.0611122 16.6733 0.035928C16.6126 0.0107438 16.5476 -0.00224226 16.4819 -0.00228869C16.4162 -0.00233512 16.3511 0.010559 16.2904 0.0356574C16.2297 0.0607558 16.1745 0.0975671 16.128 0.143989L14.651 1.62199C13.8273 1.21231 12.92 0.998743 12 0.997989C11.042 0.997989 10.14 1.22899 9.337 1.62799L7.853 0.142989C7.75702 0.0602362 7.6333 0.0168447 7.50666 0.0215232C7.38002 0.0262017 7.25983 0.078604 7.17022 0.168213C7.08061 0.257823 7.02821 0.378008 7.02353 0.504648C7.01886 0.631288 7.06225 0.755012 7.145 0.850989L8.457 2.16199C7.69556 2.71764 7.07614 3.44528 6.64918 4.28566C6.22221 5.12603 5.99978 6.05537 6 6.99799H18C18 6.0534 17.7763 5.12223 17.3474 4.28065C16.9184 3.43907 16.2963 2.711 15.532 2.15599H15.531ZM20.5 7.99799C20.1022 7.99799 19.7206 8.15602 19.4393 8.43733C19.158 8.71863 19 9.10016 19 9.49799V16.498C19 16.8958 19.158 17.2773 19.4393 17.5586C19.7206 17.84 20.1022 17.998 20.5 17.998C20.8978 17.998 21.2794 17.84 21.5607 17.5586C21.842 17.2773 22 16.8958 22 16.498V9.49799C22 9.10016 21.842 8.71863 21.5607 8.43733C21.2794 8.15602 20.8978 7.99799 20.5 7.99799ZM3.5 7.99799C3.10218 7.99799 2.72064 8.15602 2.43934 8.43733C2.15804 8.71863 2 9.10016 2 9.49799V16.498C2 16.695 2.0388 16.89 2.11418 17.072C2.18956 17.254 2.30005 17.4194 2.43934 17.5586C2.57863 17.6979 2.74399 17.8084 2.92597 17.8838C3.10796 17.9592 3.30302 17.998 3.5 17.998C3.69698 17.998 3.89204 17.9592 4.07403 17.8838C4.25601 17.8084 4.42137 17.6979 4.56066 17.5586C4.69995 17.4194 4.81044 17.254 4.88582 17.072C4.9612 16.89 5 16.695 5 16.498V9.49799C5 9.10016 4.84196 8.71863 4.56066 8.43733C4.27936 8.15602 3.89782 7.99799 3.5 7.99799ZM6 17.998C6 18.549 6.45 18.998 7 18.998H8V22.498C8 22.8958 8.15804 23.2773 8.43934 23.5586C8.72064 23.84 9.10218 23.998 9.5 23.998C9.89782 23.998 10.2794 23.84 10.5607 23.5586C10.842 23.2773 11 22.8958 11 22.498V18.998H13V22.498C13 22.8958 13.158 23.2773 13.4393 23.5586C13.7206 23.84 14.1022 23.998 14.5 23.998C14.8978 23.998 15.2794 23.84 15.5607 23.5586C15.842 23.2773 16 22.8958 16 22.498V18.998H17C17.551 18.998 18 18.549 18 17.998V7.99799H6V17.998Z" fill="#444444"/>
</svg>
