<svg width="24" height="24" viewBox="0 0 24 24" fill="none" xmlns="http://www.w3.org/2000/svg">
<path d="M22 24L16.75 19L17.375 21H4.5C3.83696 21 3.20107 20.7366 2.73223 20.2678C2.26339 19.7989 2 19.163 2 18.5V3.5C2 2.83696 2.26339 2.20107 2.73223 1.73223C3.20107 1.26339 3.83696 1 4.5 1H19.5C20.163 1 20.7989 1.26339 21.2678 1.73223C21.7366 2.20107 22 2.83696 22 3.5V24ZM12 6.8C9.315 6.8 7.44 7.95 7.44 7.95C8.471 7.029 10.268 6.482 10.268 6.482L10.096 6.326C8.409 6.356 6.878 7.529 6.878 7.529C5.158 11.122 5.268 14.216 5.268 14.216C6.674 16.029 8.753 15.904 8.753 15.904L9.456 14.997C8.206 14.732 7.424 13.622 7.424 13.622C7.424 13.622 9.3 14.9 12 14.9C14.7 14.9 16.576 13.622 16.576 13.622C16.576 13.622 15.794 14.732 14.544 14.997L15.247 15.904C15.247 15.904 17.326 16.029 18.732 14.216C18.732 14.216 18.842 11.122 17.122 7.529C17.122 7.529 15.592 6.357 13.904 6.326L13.732 6.482C13.732 6.482 15.529 7.029 16.56 7.951C16.56 7.951 14.685 6.8 12 6.8ZM9.931 10.589C10.583 10.589 11.109 11.16 11.097 11.857C11.097 12.554 10.583 13.126 9.931 13.126C9.291 13.126 8.766 12.554 8.766 11.857C8.766 11.16 9.28 10.59 9.93 10.59L9.931 10.589ZM14.103 10.589C14.754 10.589 15.269 11.16 15.269 11.857C15.269 12.554 14.754 13.126 14.103 13.126C13.463 13.126 12.937 12.554 12.937 11.857C12.937 11.16 13.451 10.589 14.103 10.589Z" fill="#444444"/>
</svg>
