<svg width="24" height="24" viewBox="0 0 24 24" fill="none" xmlns="http://www.w3.org/2000/svg">
<path d="M17.707 9.328C18.187 8.928 18.747 8.451 18.999 7.921C18.589 8.125 18.104 8.258 17.56 8.332C18.058 7.967 18.466 7.514 18.676 6.863C18.163 7.135 17.631 7.383 16.974 7.51C15.424 5.63 11.712 7.148 12.366 9.945C9.759 9.785 8.17 8.605 6.849 7.156C6.096 8.381 6.751 10.23 7.642 10.736C7.182 10.709 6.833 10.566 6.498 10.414C6.544 11.954 7.393 12.687 8.581 13.086C8.20503 13.1686 7.81678 13.1788 7.437 13.116C7.805 14.193 8.583 14.863 9.901 14.992C9.008 15.756 7.343 16.293 5.999 16.078C7.145 16.808 8.464 17.392 10.282 17.31C14.69 17.111 17.643 13.947 17.707 9.328V9.328ZM12 2C17.523 2 22 6.477 22 12C22 17.523 17.523 22 12 22C6.477 22 2 17.523 2 12C2 6.477 6.477 2 12 2Z" fill="#444444"/>
</svg>
