<svg width="24" height="24" viewBox="0 0 24 24" fill="none" xmlns="http://www.w3.org/2000/svg">
<path fill-rule="evenodd" clip-rule="evenodd" d="M5 3H19C19.5304 3 20.0391 3.21071 20.4142 3.58579C20.7893 3.96086 21 4.46957 21 5V19C21 19.5304 20.7893 20.0391 20.4142 20.4142C20.0391 20.7893 19.5304 21 19 21H14.562C14.241 20.927 14.232 20.32 14.232 20.106L14.242 17.637C14.242 16.797 13.954 16.248 13.632 15.971C15.636 15.748 17.741 14.987 17.741 11.53C17.741 10.547 17.393 9.744 16.816 9.115C16.908 8.887 17.217 7.972 16.726 6.733C16.726 6.733 15.972 6.491 14.253 7.655C13.5186 7.4551 12.7611 7.35321 12 7.352C11.2389 7.3531 10.4813 7.45498 9.747 7.655C8.027 6.491 7.273 6.733 7.273 6.733C6.783 7.972 7.091 8.887 7.184 9.114C6.57645 9.77009 6.24484 10.6349 6.258 11.529C6.258 14.979 8.358 15.751 10.358 15.978C10.1 16.203 9.868 16.599 9.786 17.181C9.273 17.411 7.969 17.808 7.166 16.433C7.166 16.433 6.691 15.569 5.788 15.505C5.788 15.505 4.908 15.495 5.726 16.053C5.726 16.053 6.316 16.329 6.726 17.369C6.726 17.369 7.254 19.119 9.757 18.576L9.769 20.106C9.769 20.319 9.754 20.931 9.429 21H5C4.46957 21 3.96086 20.7893 3.58579 20.4142C3.21071 20.0391 3 19.5304 3 19V5C3 4.46957 3.21071 3.96086 3.58579 3.58579C3.96086 3.21071 4.46957 3 5 3V3Z" fill="#444444"/>
</svg>
